<?xml version="1.0" encoding="UTF-8"?><svg id="blender_original" xmlns="http://www.w3.org/2000/svg" viewBox="0 0 122.38 40.75"><defs><style>.cls-1{fill:#3c3c3a;}</style></defs><g><path class="cls-1" d="m3.86,5.07h8.43c3.59,0,4.27,1.82,3.82,3.49-.36,1.35-1.39,2.35-3.07,3,1.93.76,2.58,1.97,2.08,3.83-.63,2.35-2.87,4.1-5.54,4.1H0S3.86,5.07,3.86,5.07Zm3.3,12.22c1.69,0,2.76-.68,3.14-2.09.32-1.2-.28-1.94-1.93-1.94h-1.65s-1.08,4.04-1.08,4.04h1.52Zm1.61-6.24c1.65,0,2.52-.87,2.79-1.9.29-1.1-.13-1.88-1.78-1.88h-1.46s-1.01,3.78-1.01,3.78h1.46Z"/><path class="cls-1" d="m18.82,5.07h8.22c3.89,0,5.06,1.86,4.45,4.12-.41,1.52-1.5,2.66-3.22,3.34.92.44,1.2,1.44,1.52,3.15l.69,3.8h-4.97s-.34-2.14-.34-2.14c-.39-2.47-.82-3.89-2.19-3.89h-1.37s-1.61,6.02-1.61,6.02h-5.05s3.86-14.41,3.86-14.41Zm4.77,6.17c1.63,0,2.76-.68,3.1-1.94.34-1.27-.38-1.9-1.96-1.9h-1.48s-1.03,3.85-1.03,3.85h1.37Z"/><path class="cls-1" d="m47.51,4.67l.85,1.08-1.68,1.4c.92,1.37,1.02,3.28.53,5.14-.99,3.68-4.33,7.4-9.82,7.4-2.09,0-3.37-.51-4.4-1.25l-2.34,1.94-.85-1.08,2.28-1.88c-.92-1.37-1.08-3.15-.55-5.14,1.03-3.83,4.45-7.4,9.82-7.4,2.14,0,3.5.57,4.39,1.27l1.77-1.48Zm-5.89,4.88c-.42-.32-.9-.44-1.4-.44-1.73,0-3.12,1.23-3.64,3.17-.16.61-.22.97-.12,1.48l5.16-4.21Zm-4.5,5.5c.28.3.86.4,1.39.4,1.71,0,3.12-1.23,3.64-3.17.16-.59.19-1.12.13-1.5l-5.16,4.27Z"/><path class="cls-1" d="m50.06,5.07h7.23c5.58,0,6.73,4.06,5.84,7.4-.88,3.28-3.89,7.02-8.79,7.02h-8.14s3.86-14.41,3.86-14.41Zm3.44,10.99c2.45,0,3.94-1.2,4.63-3.78.51-1.9.15-3.78-2.58-3.78h-1.35l-2.03,7.57h1.33Z"/><path class="cls-1" d="m66.1,5.07h8.22c3.89,0,5.06,1.86,4.45,4.12-.41,1.52-1.5,2.66-3.22,3.34.92.44,1.2,1.44,1.52,3.15l.69,3.8h-4.97s-.34-2.14-.34-2.14c-.39-2.47-.82-3.89-2.19-3.89h-1.37s-1.61,6.02-1.61,6.02h-5.05s3.86-14.41,3.86-14.41Zm4.77,6.17c1.63,0,2.76-.68,3.1-1.94.34-1.27-.38-1.9-1.96-1.9h-1.48s-1.03,3.85-1.03,3.85h1.37Z"/><path class="cls-1" d="m81.7,5.07h10.8l-.82,3.04h-5.75s-.68,2.54-.68,2.54h5.26s-.82,3.04-.82,3.04h-5.26s-.74,2.75-.74,2.75h5.83s-.82,3.04-.82,3.04h-10.89s3.86-14.41,3.86-14.41Z"/><path class="cls-1" d="m93.62,5.07h4.31s5.31,7.4,5.31,7.4l1.71-7.4h5.12s-3.86,14.41-3.86,14.41h-4.31s-5.31-7.4-5.31-7.4l-1.71,7.4h-5.12s3.86-14.41,3.86-14.41Z"/><path class="cls-1" d="m111.58,5.07h10.8s-.82,3.04-.82,3.04h-5.75l-.68,2.54h5.26l-.82,3.04h-5.26s-.74,2.75-.74,2.75h5.83s-.82,3.04-.82,3.04h-10.89l3.86-14.41Z"/></g><g><path class="cls-1" d="m24.19,25.05l.85,1.08-1.68,1.4c.92,1.37,1.02,3.28.53,5.14-.99,3.68-4.33,7.4-9.82,7.4-2.09,0-3.37-.51-4.4-1.25l-2.34,1.94-.85-1.08,2.28-1.88c-.92-1.37-1.08-3.15-.55-5.14,1.03-3.83,4.45-7.4,9.82-7.4,2.14,0,3.5.57,4.39,1.27l1.77-1.48Zm-5.89,4.88c-.42-.32-.9-.44-1.4-.44-1.73,0-3.12,1.23-3.64,3.17-.16.61-.22.97-.12,1.48l5.16-4.21Zm-4.5,5.5c.28.3.86.4,1.39.4,1.71,0,3.12-1.23,3.64-3.17.16-.59.19-1.12.13-1.5l-5.16,4.27Z"/><path class="cls-1" d="m26.74,25.45h7.23c5.58,0,6.73,4.06,5.84,7.4-.88,3.28-3.89,7.02-8.79,7.02h-8.14s3.86-14.41,3.86-14.41Zm3.44,10.99c2.45,0,3.94-1.2,4.63-3.78.51-1.9.15-3.78-2.58-3.78h-1.35s-2.03,7.57-2.03,7.57h1.33Z"/><path class="cls-1" d="m42.76,25.45h10.8s-.82,3.04-.82,3.04h-5.75l-.68,2.54h5.26l-.82,3.04h-5.26l-.74,2.75h5.83s-.82,3.04-.82,3.04h-10.89s3.86-14.41,3.86-14.41Z"/><path class="cls-1" d="m64.43,39.4c-1.8.4-4.11.68-5.85.68-6.19,0-7.27-4.1-6.43-7.25,1.2-4.48,5.58-7.57,10.76-7.57,1.71,0,3.35.34,4.77.97l-.97,3.61c-1.26-.8-2.61-1.23-3.96-1.23-2.64,0-4.86,1.65-5.52,4.1-.7,2.6.87,4.16,4.12,3.72l.45-1.69h-1.8l.82-3.04h5.66l-2.06,7.69Z"/><path class="cls-1" d="m74.87,25.45h5.28s2.71,14.41,2.71,14.41h-5.01s-.32-2.35-.32-2.35h-6.51s-1.58,2.35-1.58,2.35h-5.01s10.44-14.41,10.44-14.41Zm2.3,9.47l-.67-5.71-3.75,5.71h4.42Zm3.25-12.45c-.31,1.16-1.5,2.11-2.66,2.11s-1.86-.95-1.55-2.11c.31-1.16,1.51-2.09,2.67-2.09,1.16,0,1.84.93,1.53,2.09Zm-3.09,0c-.15.55.17,1.01.72,1.01s1.14-.47,1.29-1.01c.15-.55-.2-.99-.75-.99s-1.11.44-1.26.99Z"/><path class="cls-1" d="m86.95,25.45h8.22c3.89,0,5.06,1.86,4.45,4.12-.41,1.52-1.5,2.66-3.22,3.34.92.44,1.2,1.44,1.52,3.15l.69,3.8h-4.97l-.34-2.14c-.39-2.47-.82-3.89-2.19-3.89h-1.37s-1.61,6.02-1.61,6.02h-5.05s3.86-14.41,3.86-14.41Zm4.77,6.17c1.63,0,2.76-.68,3.1-1.94.34-1.27-.38-1.9-1.96-1.9h-1.48s-1.03,3.85-1.03,3.85h1.37Z"/><path class="cls-1" d="m102.57,25.45h7.23c5.58,0,6.73,4.06,5.84,7.4-.88,3.28-3.89,7.02-8.79,7.02h-8.14s3.86-14.41,3.86-14.41Zm3.44,10.99c2.45,0,3.94-1.2,4.63-3.78.51-1.9.15-3.78-2.58-3.78h-1.35s-2.03,7.57-2.03,7.57h1.33Z"/></g></svg>