<?xml version="1.0" encoding="UTF-8"?>
<svg id="Layer_1" data-name="Layer 1" xmlns="http://www.w3.org/2000/svg" xmlns:xlink="http://www.w3.org/1999/xlink" viewBox="0 0 202.68 48.47">
  <defs>
    <style>
      .cls-1 {
        clip-path: url(#clippath);
      }

      .cls-2, .cls-3 {
        fill: none;
      }

      .cls-2, .cls-4, .cls-5 {
        stroke-width: 0px;
      }

      .cls-3 {
        stroke: #000;
        stroke-width: .2px;
      }

      .cls-5 {
        fill: #fff;
      }
    </style>
    <clipPath id="clippath">
      <path class="cls-2" d="m3.24.06v7.07c0,6.81-.54,14,4.66,24.13,5.08,9.89,13.64,14.04,14.02,14.15,0,0,.01,0,.01,0h0s0,0,0,0,0,0,0,0c0,0,0,0,.01,0,.38-.11,8.94-4.26,14.02-14.15,5.2-10.13,4.66-17.32,4.66-24.13V.06H3.24Z"/>
    </clipPath>
  </defs>
  <g class="cls-1">
    <path class="cls-4" d="m43.93,0H.05s-.7,12.9,3.1,25.84h37.68c3.8-12.94,3.11-25.84,3.11-25.84M9.14,25.84v-5.24h3.31v-5.15h3.56v-5.14h3.52v-5.15h5v5.15h3.49v5.14h3.58v5.15h3.24v5.24H9.14Z"/>
    <path class="cls-5" d="m34.85,25.79v-5.19h-3.24v-5.15h-3.58v-5.14h-3.49v-5.15h-5v5.15h-3.52v5.14h-3.56v5.15h-3.31v5.19H3.15c2.62,8.96,10.18,17.94,18.84,22.67,8.65-4.74,16.21-13.72,18.84-22.67h-5.98Z"/>
  </g>
  <g>
    <path class="cls-3" d="m40.53.16v6.97c0,.58,0,1.17,0,1.76.04,6.43.09,13.08-4.65,22.32-5.03,9.8-13.54,13.92-13.94,14.1-.64-.29-8.99-4.43-13.95-14.1C3.25,21.96,3.29,15.31,3.34,8.88c0-.59,0-1.18,0-1.76V.16h37.19Z"/>
    <g>
      <path class="cls-4" d="m60.15,28.89l-3.32,9.95h-1.91l-3.28-9.95h1.58l2.66,8.48,2.66-8.48h1.6Z"/>
      <path class="cls-4" d="m61.73,28.89h1.49v9.95h-1.49v-9.95Z"/>
      <path class="cls-4" d="m65.66,28.89h3.36c2.9,0,4.85,1.96,4.85,4.98s-1.88,4.98-4.85,4.98h-3.36v-9.95Zm3.33,8.62c2.09,0,3.33-1.33,3.33-3.65s-1.29-3.65-3.33-3.65h-1.85v7.29h1.85Z"/>
      <path class="cls-4" d="m81.95,37.52v1.33h-6.14v-9.95h6.02v1.33h-4.54v2.83h4.27v1.32h-4.27v3.14h4.65Z"/>
      <path class="cls-4" d="m86.82,34.91h-1.43v3.94h-1.48v-9.95h3.08c2.21,0,3.49,1.1,3.49,3.01,0,1.45-.76,2.43-2.09,2.82l2.54,4.12h-1.71l-2.4-3.94Zm-1.43-1.28h1.58c1.22,0,1.88-.6,1.88-1.73s-.66-1.68-1.88-1.68h-1.58v3.41Z"/>
      <path class="cls-4" d="m98.82,37.52v1.33h-6.14v-9.95h6.02v1.33h-4.54v2.83h4.27v1.32h-4.27v3.14h4.65Z"/>
      <path class="cls-4" d="m108.62,33.46v4.2c-.97.8-2.37,1.28-3.77,1.28-2.83,0-4.72-2.05-4.72-4.94,0-3.14,1.82-5.2,4.65-5.2,1.67,0,2.68.56,3.52,1.21l-.88,1.09c-.76-.52-1.53-.9-2.69-.9-1.86,0-3.05,1.45-3.05,3.7s1.29,3.77,3.31,3.77c.78,0,1.55-.21,2.13-.58v-2.3h-2.56v-1.32h4.08Z"/>
      <path class="cls-4" d="m116.19,36.41h-3.98l-.8,2.43h-1.57l3.4-9.95h1.89l3.43,9.95h-1.58l-.8-2.43Zm-.43-1.33l-1.55-4.75-1.56,4.75h3.11Zm-2.97-8.3c0-.75.62-1.32,1.42-1.32s1.43.57,1.43,1.32-.6,1.3-1.43,1.3-1.42-.57-1.42-1.3Zm.79,0c0,.39.24.64.63.64s.67-.25.67-.64-.27-.67-.67-.67-.63.27-.63.67Z"/>
      <path class="cls-4" d="m126.23,37.52v1.33h-6.14v-9.95h6.02v1.33h-4.54v2.83h4.27v1.32h-4.27v3.14h4.65Z"/>
      <path class="cls-4" d="m135.87,28.89v9.95h-1.78l-4.48-7.78v7.78h-1.44v-9.95h1.78l4.48,7.77v-7.77h1.44Z"/>
      <path class="cls-4" d="m138.31,28.89h3.36c2.9,0,4.85,1.96,4.85,4.98s-1.88,4.98-4.85,4.98h-3.36v-9.95Zm3.33,8.62c2.09,0,3.33-1.33,3.33-3.65s-1.29-3.65-3.33-3.65h-1.85v7.29h1.85Z"/>
      <path class="cls-4" d="m154.59,37.52v1.33h-6.13v-9.95h6.02v1.33h-4.54v2.83h4.27v1.32h-4.27v3.14h4.65Z"/>
      <path class="cls-4" d="m160.38,37.69l.85-1.08c.73.61,1.44.97,2.48.97,1.18,0,1.89-.63,1.89-1.45,0-2.14-4.89-1.42-4.89-4.6,0-1.65,1.27-2.73,3.05-2.73,1.25,0,2.26.44,2.98,1.1l-.91,1.01c-.57-.48-1.19-.77-2-.77-.91,0-1.65.47-1.65,1.28,0,2.05,4.89,1.36,4.89,4.62,0,1.78-1.39,2.9-3.36,2.9-1.43,0-2.48-.46-3.33-1.25Z"/>
      <path class="cls-4" d="m171.49,34.22l-1.13,1.16v3.47h-1.49v-9.95h1.49v4.64l4.55-4.64h1.82l-4.2,4.28,4.3,5.67h-1.82l-3.52-4.63Z"/>
      <path class="cls-4" d="m177.21,33.87c0-2.99,1.96-5.07,4.79-5.07s4.8,2.08,4.8,5.07-1.96,5.07-4.8,5.07-4.79-2.08-4.79-5.07Zm8.04,0c0-2.25-1.27-3.69-3.25-3.69s-3.25,1.44-3.25,3.69,1.27,3.69,3.25,3.69,3.25-1.45,3.25-3.69Z"/>
      <path class="cls-4" d="m194.97,37.52v1.33h-6.23v-9.95h1.48v8.62h4.75Z"/>
      <path class="cls-4" d="m202.68,37.52v1.33h-6.14v-9.95h6.02v1.33h-4.54v2.83h4.27v1.32h-4.27v3.14h4.65Z"/>
    </g>
    <g>
      <path class="cls-4" d="m69.23,2.94l-6.76,19.52h-4.61l-6.67-19.52h3.83l5.19,16.15,5.16-16.15h3.86Z"/>
      <path class="cls-4" d="m85.3,19.43v3.03h-12.94V2.94h12.73v3.03h-9.14v4.91h8.59v3.03h-8.59v5.53h9.34Z"/>
      <path class="cls-4" d="m88.14,20.21l2.03-2.5c1.65,1.25,3.07,1.85,5.05,1.85,2.15,0,3.57-1.02,3.57-2.48,0-3.86-9.89-2.64-9.89-8.82,0-3.37,2.79-5.51,6.5-5.51,2.52,0,4.67.76,6.29,2.14l-2.18,2.32c-1.22-.94-2.44-1.38-3.95-1.38-1.6,0-3.13.73-3.13,2.19,0,3.6,9.89,2.43,9.89,8.82,0,3.6-2.99,5.79-7.08,5.79-2.93,0-5.16-.81-7.11-2.43Z"/>
      <path class="cls-4" d="m121.75,5.96h-6.7v16.49h-3.6V5.96h-6.67v-3.03h16.97v3.03Z"/>
      <path class="cls-4" d="m140.08,16.82c0,3.65-3.19,5.64-7.71,5.64h-6.99V2.94h6.56c4.47,0,7.19,2.14,7.19,5.27,0,1.93-1.01,3.1-2.26,3.91,1.39.55,3.22,1.93,3.22,4.7Zm-11.11-10.85v5.01h2.55c2.29,0,4.03-.47,4.03-2.56s-1.68-2.45-4.03-2.45h-2.55Zm7.4,10.7c0-2.3-2-2.77-4.35-2.77h-3.05v5.53h3.05c2.49,0,4.35-.65,4.35-2.77Z"/>
      <path class="cls-4" d="m159.83,2.94l-7.02,12.08v7.44h-3.6v-7.44l-7.02-12.08h4.03l4.79,8.66,4.9-8.66h3.92Z"/>
    </g>
  </g>
</svg>