<?xml version="1.0" encoding="UTF-8"?><svg id="blender_original" xmlns="http://www.w3.org/2000/svg" viewBox="0 0 141.13 24.43"><defs><style>.cls-1{fill:#fff;}.cls-2{fill:#575757;}</style></defs><rect class="cls-2" y="0" width="24.33" height="24.33"/><rect class="cls-2" x="29.2" y="0" width="24.33" height="24.33"/><rect class="cls-2" x="58.4" y="0" width="24.33" height="24.33"/><rect class="cls-2" x="87.6" y="0" width="24.33" height="24.33"/><rect class="cls-2" x="116.8" y="0" width="24.33" height="24.33"/><path class="cls-1" d="m17.6,14.36v.99c0,.44-.08.91-.36,1.31-.27.36-1.08,1.27-1.54,1.54-.36.21-.89.4-1.39.4h-4.28c-.53,0-1.03-.19-1.39-.4-.46-.27-1.29-1.18-1.54-1.54-.27-.4-.36-.86-.36-1.31v-6.35c0-.46.08-.93.36-1.33.25-.34,1.08-1.24,1.54-1.52.36-.21.86-.4,1.39-.4h4.28c.51,0,1.03.19,1.39.4.46.27,1.27,1.18,1.54,1.52.27.4.36.86.36,1.33v.97h-2.57v-.97c-.15-.25-.55-.65-.76-.78h-4.18c-.17.13-.53.44-.78.8v6.33c.23.32.59.67.76.78h4.18c.17-.13.55-.49.78-.78v-.99h2.57Z"/><path class="cls-1" d="m134.04,16.66c-.27.36-1.08,1.27-1.54,1.54-.36.21-.89.4-1.39.4h-4.28c-.53,0-1.03-.19-1.39-.4-.46-.27-1.29-1.18-1.54-1.54-.27-.4-.36-.86-.36-1.31v-6.35c0-.46.08-.93.36-1.33.25-.34,1.08-1.24,1.54-1.52.36-.21.86-.4,1.39-.4h4.28c.51,0,1.03.19,1.39.4.46.27,1.27,1.18,1.54,1.52.27.4.36.86.36,1.33v6.35c0,.44-.08.91-.36,1.31Zm-2.21-7.66c-.15-.25-.55-.65-.76-.78h-4.18c-.17.13-.53.44-.78.8v6.33c.23.32.59.67.76.78h4.18c.17-.13.55-.49.78-.78v-6.35Z"/><path class="cls-1" d="m43.75,18.49l-3.14-4.83h-1.54v4.83h-2.57V5.84h6.16c.55,0,1.18.17,1.6.49.27.19.91.86,1.12,1.16.25.4.4.93.4,1.39v1.79c0,.51-.13.97-.4,1.37-.17.3-.8.95-1.12,1.14-.4.23-.59.3-.72.36-.02.02-.04,0-.06.02,1.03,1.54,2.24,3.37,3.27,4.94h-3Zm-.55-9.68c-.11-.17-.36-.42-.55-.51h-3.59v2.89h3.59c.08,0,.42-.3.55-.51v-1.88Z"/><path class="cls-1" d="m73.62,18.49l-.84-2.43h-4.41c-.27.78-.59,1.65-.86,2.43h-2.74l4.39-12.66h2.85l4.37,12.66h-2.74Zm-3.06-9.25c-.46,1.35-.95,3-1.41,4.35h2.85l-1.43-4.35Z"/><path class="cls-1" d="m96.74,18.49h-2.57V5.84h2.81l2.83,5.74c.93-1.9,1.86-3.86,2.78-5.74h2.78v12.66h-2.57v-7.87s-.15.58-.15.58h0c-.67,1.43-1.38,2.86-2.04,4.28h-1.69l-2.03-4.28h0s-.14-.58-.14-.58v7.87Z"/></svg>