<svg width="54" height="60" viewBox="0 0 54 60" fill="none" xmlns="http://www.w3.org/2000/svg">
<g clip-path="url(#clip0_3602_24738)">
<path d="M0.134594 48.4812C0.112206 47.9215 0.559965 47.4402 1.11967 47.429C1.67936 47.4178 2.16071 47.8544 2.1719 48.4141C2.1719 48.4364 2.1719 48.4588 2.1719 48.4812C2.14951 49.0409 1.67936 49.4887 1.11967 49.4663C0.582353 49.4551 0.156982 49.0185 0.134594 48.4812ZM0.392055 51.0446H1.91444V59.7648H0.392055V51.0446Z" fill="#243746"/>
<path d="M11.0041 54.414V59.7647H9.48171V54.5036C9.48171 53.0707 8.66455 52.276 7.32127 52.276C5.92202 52.276 4.79143 53.0931 4.79143 55.1528V59.7759H3.26904V51.0446H4.79143V52.2983C5.42948 51.2685 6.39217 50.8207 7.61231 50.8207C9.66081 50.8207 11.0041 52.1752 11.0041 54.414Z" fill="#243746"/>
<path d="M14.5302 50.8208V51.0446H16.8138V52.5111H14.5302V59.7648H13.0078V52.5111H11.6646V51.0446H13.0078V50.8208C13.0078 48.5036 14.3399 47.1939 16.8362 47.373V48.8394C15.3138 48.7051 14.5302 49.2984 14.5302 50.8208Z" fill="#243746"/>
<path d="M16.8697 55.4103C16.8585 52.8692 18.9182 50.7983 21.4592 50.7983C24.0002 50.7983 26.0711 52.8468 26.0711 55.3879C26.0711 57.9289 24.0226 59.9998 21.4816 59.9998C21.4704 59.9998 21.4704 59.9998 21.4592 59.9998C18.9518 60.0222 16.8921 58.0073 16.8697 55.4886C16.8697 55.4662 16.8697 55.4327 16.8697 55.4103ZM24.5599 55.4103C24.5599 53.6528 23.2167 52.3095 21.4704 52.3095C19.7241 52.3095 18.3921 53.6528 18.3921 55.4103C18.3921 57.1677 19.7353 58.511 21.4704 58.511C23.2055 58.511 24.5599 57.1789 24.5599 55.4103Z" fill="#243746"/>
<path d="M36.3024 55.3991C36.3024 57.9737 34.3099 59.9886 31.8808 59.9886C30.392 59.9886 29.2838 59.3282 28.5785 58.2647V59.7647H27.0562V47.5969H28.5785V52.5446C29.2726 51.4812 30.392 50.8207 31.8808 50.8207C34.3211 50.8207 36.3024 52.8245 36.3024 55.3991ZM34.7912 55.3991C34.7912 53.6192 33.4479 52.276 31.7017 52.276C29.9554 52.276 28.5897 53.6192 28.5897 55.3991C28.5897 57.1789 29.933 58.5222 31.7017 58.5222C33.4703 58.5222 34.7912 57.1789 34.7912 55.3991Z" fill="#243746"/>
<path d="M41.5526 50.8879V52.4774C40.2429 52.4215 38.8324 53.0931 38.8324 55.1416V59.7647H37.3101V51.0446H38.8324V52.511C39.3809 51.2909 40.4556 50.8879 41.5526 50.8879Z" fill="#243746"/>
<path d="M42.5374 48.4812C42.515 47.9215 42.9628 47.4402 43.5225 47.429C44.0822 47.4178 44.5635 47.8544 44.5747 48.4141C44.5747 48.4364 44.5747 48.4588 44.5747 48.4812C44.5523 49.0409 44.0822 49.4887 43.5225 49.4663C42.9852 49.4551 42.5598 49.0185 42.5374 48.4812ZM42.7949 51.0446H44.3173V59.7648H42.7949V51.0446Z" fill="#243746"/>
<path d="M45.3472 55.3991C45.3472 52.8245 47.3061 50.8096 49.9367 50.8096C51.6718 50.8096 53.127 51.7163 53.7986 53.0931L52.5225 53.8319C52.086 52.9028 51.1121 52.2984 49.9367 52.2984C48.1904 52.2984 46.8584 53.6417 46.8584 55.3991C46.8584 57.1454 48.1904 58.4887 49.9367 58.4887C51.1233 58.4887 52.086 57.873 52.5785 56.9775L53.8658 57.7275C53.1382 59.0819 51.6494 59.9887 49.9367 59.9887C47.3061 59.9887 45.3472 57.9849 45.3472 55.3991Z" fill="#243746"/>
<path d="M39.9178 13.8917C37.3768 10.8358 33.8283 8.77609 29.9104 8.09326C26.9888 7.55595 24.1903 9.49251 23.6642 12.4141C23.138 15.3358 25.0634 18.1343 27.985 18.6604C28.0074 18.6604 28.0298 18.6716 28.041 18.6716C30.9403 19.1753 33.0447 21.6828 33.0447 24.6268C33.0447 27.9626 30.3358 30.6715 27 30.6715C23.6642 30.6715 20.9552 27.9626 20.9552 24.6268V5.37312C20.9552 2.40671 18.5485 0 15.5821 0C12.6157 0 10.209 2.40671 10.209 5.37312V24.6268C10.209 33.8842 17.7425 41.4178 27 41.4178C36.2574 41.4178 43.791 33.8842 43.791 24.6268C43.791 20.7089 42.4141 16.9141 39.9178 13.8917ZM15.5709 9.29102C13.5336 9.29102 11.8769 7.6343 11.8769 5.597C11.8769 3.55969 13.5336 1.90298 15.5709 1.90298C17.6082 1.90298 19.2649 3.55969 19.2649 5.597C19.2649 7.6343 17.6082 9.29102 15.5709 9.29102Z" fill="#243746"/>
</g>
<defs>
<clipPath id="clip0_3602_24738">
<rect width="53.732" height="60" fill="white" transform="translate(0.133789)"/>
</clipPath>
</defs>
</svg>
