<?xml version="1.0" encoding="utf-8"?>
<!-- Generator: Adobe Illustrator 28.2.0, SVG Export Plug-In . SVG Version: 6.00 Build 0)  -->
<svg version="1.1" id="Layer_1" xmlns="http://www.w3.org/2000/svg" xmlns:xlink="http://www.w3.org/1999/xlink" x="0px" y="0px"
	 viewBox="0 0 841.9 595.2" style="enable-background:new 0 0 841.9 595.2;" xml:space="preserve">
<style type="text/css">
	.st0{enable-background:new    ;}
</style>
<g>
	<g class="st0">
		<g>
			<path d="M173.2,296c0-12.1,3.2-18.5,20.6-18.5h2.9c11,0.8,13.7-0.8,13.7-12.9v-2.9c0-12.1-3-17.2-13.7-17.2h-2.9
				c-36.7,0-55.7,17.2-55.7,48.8v73.4c0,12.1,2.9,15,15,15h5.1c12.1,0,15-2.9,15-15V296z"/>
			<path d="M333.2,301.1c0-37.2-19.1-56.5-57.3-56.5c-45.5,0-61,25.1-61,58.9v20.9c0,40.6,22,57.3,68.3,57.3c14.7,0,27-2.1,31.9-3.4
				c11.5-2.9,13.9-5.2,13.9-17v-2.9c0-11.8-2.3-14.9-13.9-12.6c-5,1-18.1,3.7-31.7,3.7c-24.3,0-34.3-6.3-34.3-19.9v-3.9h66.5
				c12,0,15.4-2.4,17-14.4C333.2,306.6,333.2,303.2,333.2,301.1z M249.2,294.1c0-13.1,8.4-19.9,25.7-19.9c17.3,0,25.9,6.8,25.9,19.9
				v3.9h-51.6V294.1z"/>
			<path d="M380,298.7c0-13.7,4-21.2,26-21.2c22,0,25.4,7.5,25.4,21.2v68c0,12.1,2.9,15,15,15h5.1c12.1,0,15-2.9,15-15v-68
				c0-35.9-18.2-54.1-60.5-54.1c-40.5,0-61.1,19-61.1,54.1v68c0,12.1,2.9,15,15,15h5.1c12.1,0,15-2.9,15-15V298.7z"/>
			<path d="M474,267.1c0,10.5,2.6,13.1,13.1,13.1h10.5v51.6c0,38.2,21.5,50,50.5,50c9.2,0,14.9-0.8,18.3-1.6
				c11.5-2.4,14.4-6.8,14.4-18.6v-2.9c0-11.8-2.9-12.8-14.4-10.7c-2.6,0.5-9.2,1.6-18.3,1.6c-9.9,0-16.5-4.5-16.5-17.5v-51.8h29.8
				c11.8,0,14.7-2.9,14.7-14.7v-2.9c0-11.8-2.9-14.7-14.7-14.7h-29.8v-20.4c0-11-2.6-13.6-13.6-13.6h-1.6c-11,0-14.1,2.6-15.7,13.3
				l-3.1,20.7l-10.7,2.4c-10.2,2.1-12.8,5.2-12.8,15.7V267.1z"/>
			<path d="M703.3,289.6c0-34.3-24.9-45-63.3-45c-11,0-17.3,0.8-21.2,1.3c-11.3,1.6-14.1,4.7-14.1,16v1c0,11.8,3.4,13.9,14.7,12.3
				c3.9-0.5,12.3-1.6,22.8-1.6c16.2,0,27.2,2.4,27.2,16v9.9h-26.4c-31.2,0-53.1,10.2-53.1,40.8c0,27,16.7,41.4,56.8,41.4
				c40.3,0,56.8-14.4,56.8-42.1V289.6z M669.3,337.8c0,14.4-11.5,15.4-23.3,15.4c-11.8,0-22.3-1-22.3-13.6c0-9.7,6-14.4,18.6-14.4
				h27V337.8z"/>
		</g>
	</g>
</g>
</svg>
