<?xml version="1.0" encoding="UTF-8"?>
<svg id="Layer_1" xmlns="http://www.w3.org/2000/svg" version="1.1" viewBox="0 0 294.6 67.8">
  <!-- Generator: Adobe Illustrator 30.0.0, SVG Export Plug-In . SVG Version: 2.1.1 Build 123)  -->
  <defs>
    <style>
      .st0 {
        fill: #e16510;
      }

      .st1 {
        fill: #072643;
      }
    </style>
  </defs>
  <ellipse class="st0" cx="81.3" cy="12.4" rx="4.8" ry="4.8"/>
  <path class="st0" d="M54.9,10.2h-15.3v37.9h15.3c10.5,0,18.6-8.3,18.6-19s-8-19-18.6-19ZM65.1,29.1c0,6.5-4.1,10.6-10.1,10.6h-6.6v-21.2h6.5c6,0,10.2,4.1,10.2,10.6h0Z"/>
  <rect class="st0" x="77" y="19.8" width="8.5" height="28.3"/>
  <path class="st0" d="M111.5,22.9c-1.9-2.3-4.6-3.7-8.3-3.7-8.1,0-14,6.6-14,14.3s5.9,14.3,14,14.3,6.4-1.4,8.3-3.7v2.6c0,4-2.5,5.7-6.4,6.1-3,.3-6.9-.5-10.2-3.5l-4.6,5.8c3.8,3.9,8.5,5.1,14.5,5.1s15-4,15-13.5v-26.8h-8.3v2.9ZM104.5,40.1c-4,0-6.9-2.6-6.9-6.6s2.8-6.6,6.9-6.6,6.9,2.7,6.9,6.6-2.8,6.6-6.9,6.6Z"/>
  <rect class="st0" x="119.7" y="19.9" width="0" height="0"/>
  <path class="st0" d="M128.4,7.7c-2.7,0-4.8,2.1-4.8,4.8s2.2,4.8,4.8,4.8,4.8-2.1,4.8-4.8-2.2-4.8-4.8-4.8Z"/>
  <rect class="st0" x="124.2" y="19.8" width="8.5" height="28.3"/>
  <path class="st1" d="M176,29.6c0-11-8.9-19.5-19.9-19.5s-19.9,8.5-19.9,19.5,8.9,19.5,19.9,19.5,6.3-.8,9-2l6,6.1,5.9-5.5-5.4-5.7c2.7-3.4,4.4-7.6,4.4-12.3ZM156,40.9c-1.6,0-3.2-.3-4.6-.9-1.3-.6-2.5-1.3-3.4-2.3-2.1-2-3.5-4.9-3.5-8,0-6.2,5.1-11.2,11.4-11.2s11.4,5,11.4,11.2c.1,6.2-5.1,11.2-11.4,11.2Z"/>
  <polygon class="st1" points="176 29.6 176 29.6 176 29.6 176 29.6"/>
  <polygon class="st1" points="207 19.8 207 19.8 207 19.8 207 19.8"/>
  <path class="st1" d="M198.4,35.2c0,4-2.1,5.8-5.3,5.8s-5-1.6-5-5.1v-16.1h-8.5v17.4c0,7.6,4.9,11.7,10.7,11.7s6.6-1.4,8.1-3.4v2.6h8.5v-28.3h-8.5v15.4Z"/>
  <path class="st1" d="M215.7,7.7c-2.7,0-4.8,2.1-4.8,4.8s2.2,4.8,4.8,4.8,4.8-2.1,4.8-4.8-2.2-4.8-4.8-4.8Z"/>
  <rect class="st1" x="211.4" y="19.8" width="8.5" height="28.3"/>
  <path class="st1" d="M241.3,19.1c-3.9,0-6.6,1.3-8.5,3.4v-2.6h-8.5v39.6h8.5v-14c1.9,2.1,4.7,3.4,8.5,3.4,7.5,0,13.6-6.4,13.6-14.9s-6.2-14.9-13.6-15ZM239.8,41.1c-3.9,0-6.8-2.6-6.8-6.9s2.8-6.9,6.8-6.9,6.8,2.6,6.8,6.9-2.8,6.9-6.8,6.9Z"/>
</svg>