<?xml version="1.0" encoding="UTF-8"?>
<svg id="Layer_1" xmlns="http://www.w3.org/2000/svg" version="1.1" viewBox="0 0 365.1 210.2">
  <!-- Generator: Adobe Illustrator 30.0.0, SVG Export Plug-In . SVG Version: 2.1.1 Build 123)  -->
  <defs>
    <style>
      .st0 {
        fill: #fff;
      }
    </style>
  </defs>
  <circle class="st0" cx="72.4" cy="124.5" r="8"/>
  <path class="st0" d="M28.3,120.7H2.8v63.3h25.5c17.6,0,31-13.8,31-31.7s-13.4-31.7-31-31.7h0ZM45.3,152.4c0,10.9-6.9,17.7-16.9,17.8h-11v-35.4h10.9c10,0,17,6.8,17,17.7h0Z"/>
  <rect class="st0" x="65.2" y="136.8" width="14.2" height="47.3"/>
  <path class="st0" d="M122.7,142c-3.2-3.9-7.7-6.2-13.9-6.2-13.5,0-23.4,11-23.4,23.9s9.9,23.9,23.4,23.9,10.8-2.3,13.9-6.2v4.4c0,6.7-4.1,9.5-10.8,10.1-5,.5-11.5-.9-17-5.9l-7.7,9.8c6.3,6.4,14.3,8.6,24.2,8.6s25.1-6.7,25.1-22.6v-44.7h-13.8v4.8h0ZM111.1,170.7c-6.7,0-11.5-4.4-11.5-11s4.7-11,11.5-11,11.5,4.5,11.5,11-4.7,11-11.5,11Z"/>
  <rect class="st0" x="136.5" y="137" height=".1"/>
  <path class="st0" d="M151,116.6c-4.4,0-8,3.6-8,8s3.6,8,8,8,8-3.6,8-8-3.6-8-8-8Z"/>
  <rect class="st0" x="143.9" y="136.8" width="14.2" height="47.3"/>
  <path class="st0" d="M197.2,121.7c18.1,0,32.2,13.8,32.2,31.5s-2.4,14.2-7.1,20l-.5.7.6.6,8.3,8.7-8.4,7.9-9.4-9.4-.5-.5-.6.3c-4.5,2.1-9.5,3.2-14.5,3.2-18.1,0-32.2-13.8-32.2-31.5s14.2-31.5,32.2-31.5M197.1,173c5.5,0,10.7-2.2,14.5-6,3.6-3.7,5.6-8.6,5.5-13.7,0-10.9-9-19.7-20.1-19.7s-20.1,8.8-20.1,19.7,2.2,10.5,6.1,14.1c1.6,1.5,3.6,2.9,6,4s5.2,1.7,8.1,1.7M197.2,120.7c-18.3,0-33.2,14.1-33.2,32.5s14.9,32.5,33.2,32.5,10.5-1.3,15-3.3l10.1,10.1,9.9-9.3-9-9.4c4.5-5.6,7.3-12.7,7.3-20.6,0-18.4-14.9-32.5-33.2-32.5h-.1ZM197.1,172c-2.7,0-5.4-.5-7.7-1.6-2.1-.9-4.1-2.2-5.7-3.8-3.6-3.3-5.8-8.2-5.8-13.4,0-10.4,8.5-18.7,19.1-18.7s19.1,8.4,19.1,18.7c.2,10.4-8.4,18.7-19,18.7h0Z"/>
  <polygon class="st0" points="230.5 153.2 230.5 153.3 230.5 153.3 230.5 153.2 230.5 153.2"/>
  <polygon class="st0" points="282.2 136.7 282.2 136.7 282.2 136.7 282.2 136.7"/>
  <path class="st0" d="M281.2,137.7v45.2h-12.2v-6.4l-1.8,2.5c-2.5,3.4-7.2,5.3-12.8,5.3s-8.8-1.7-11.8-4.7-5-8.1-5-13.9v-28.1h12.2v25.9c0,5.9,3.6,9.6,9.3,9.6s9.9-3.9,9.9-10.7v-24.7h12.2M282.2,136.7h-14.2v25.7c0,6.7-3.6,9.7-8.9,9.7s-8.3-2.7-8.3-8.6v-26.9h-14.2v29.1c0,12.8,8.2,19.5,17.8,19.5s11.1-2.3,13.6-5.8v4.4h14.2v-47.2h0Z"/>
  <path class="st0" d="M296.7,117.6c3.9,0,7,3.1,7,7s-3.1,7-7,7-7-3.1-7-7,3.2-7,7-7M296.7,116.6c-4.4,0-8,3.6-8,8s3.6,8,8,8,8-3.6,8-8-3.6-8-8-8h0Z"/>
  <path class="st0" d="M302.8,137.8v45.3h-12.2v-45.3h12.2M303.8,136.8h-14.2v47.3h14.2v-47.3h0Z"/>
  <path class="st0" d="M339.6,136.6c5.8,0,11.2,2.5,15.3,7,4.2,4.5,6.5,10.6,6.5,17,0,13.4-9.6,23.9-21.8,23.9s-10.3-1.8-13.5-5.4l-1.7-2v24.9h-12.2v-64.1h12.2v6l1.7-2c3.2-3.6,7.7-5.4,13.5-5.4M337,173.4c7.3,0,12.3-5,12.3-12.5s-4.9-12.5-12.3-12.5-12.3,5-12.3,12.5,4.9,12.5,12.3,12.5M339.6,135.6c-6.4,0-11.1,2.2-14.2,5.8v-4.4h-14.2v66.1h14.2v-23.3c3.2,3.6,7.8,5.8,14.2,5.8,12.4,0,22.8-10.8,22.8-24.9s-10.3-24.9-22.8-25h0ZM337,172.4c-6.5,0-11.3-4.4-11.3-11.5s4.7-11.5,11.3-11.5,11.3,4.4,11.3,11.5-4.7,11.5-11.3,11.5h0Z"/>
  <path class="st0" d="M173,7h.9c0,0,.1.3.2.5,0,1.8.4,4.5,1.7,7.6,1,2.4,3.1,4.3,5.6,4.9h0c.7.2,1.3.3,2,.3,1.9,0,3.8-.7,5.3-1.9,2.6-2.2,4.2-4.4,5.1-5.9,0-.1.1-.2.2-.3,1.4.7,2.8,1.5,4.1,2.3,0,.1,0,.3-.1.5-.8,1.6-1.9,4.1-2.4,7.5-.4,2.6.5,5.2,2.4,7.1h0c1.5,1.6,3.6,2.4,5.7,2.4s.9,0,1.4-.1c3.3-.6,5.9-1.7,7.4-2.6.1,0,.3-.1.3-.1.9,1.3,1.6,2.7,2.4,4,0,0-.2.3-.3.4-1.5.9-3.7,2.6-5.8,5.3-1.6,2.1-2.2,4.8-1.4,7.3h0c.7,2.6,2.6,4.6,5.1,5.5,3.2,1.2,5.9,1.4,7.7,1.4h.4c0,1.6.1,3.1,0,4.7-.1,0-.3,0-.5.2-1.8,0-4.5.4-7.6,1.7-2.4,1-4.3,3.1-4.9,5.6l1,.2-1-.2c-.6,2.6,0,5.3,1.7,7.3,2.2,2.6,4.4,4.2,5.9,5.1.1,0,.2,0,.3.2-.7,1.4-1.5,2.8-2.3,4.1h0c-.1,0-.3,0-.4,0-1.6-.8-4.1-1.9-7.5-2.4h-1.2c-2.2,0-4.3.9-5.9,2.5h0c-1.8,1.9-2.7,4.6-2.2,7.2.6,3.3,1.7,5.9,2.6,7.4,0,0,.1.2.1.3-1.3.9-2.7,1.6-4,2.4-.1,0-.3-.2-.4-.3-.9-1.5-2.6-3.7-5.3-5.8-1.4-1.1-3.2-1.8-5.1-1.8s-1.5,0-2.2.3h0c-2.5.7-4.6,2.6-5.5,5.1-1.2,3.2-1.4,5.9-1.4,7.7v.4h-1.8v-19.1c2.3,0,4.6-.4,6.8-1,15.9-4.3,25.3-20.7,21-36.6-3.4-12.7-14.8-21.6-27.8-22V7M172.1,6h0v21h0c12.7,0,24.3,8.5,27.8,21.3,4.2,15.4-4.9,31.2-20.3,35.4-2.5.7-5.1,1-7.6,1v21c1.1,0,2.2,0,3.3,0,.3-.3.6-.8.6-1.3,0-1.6.3-4.3,1.4-7.4.8-2.2,2.6-3.8,4.8-4.5h0c.6-.2,1.3-.3,2-.3,1.6,0,3.2.5,4.5,1.5,2.6,2,4.2,4.2,5,5.5.3.5.9.8,1.4.8,1.7-.9,3.3-1.8,4.8-2.8.1-.4.1-1-.2-1.4-.8-1.4-1.9-3.8-2.5-7.1-.4-2.3.3-4.6,1.9-6.3h0c1.4-1.4,3.2-2.2,5.2-2.2s.7,0,1,0c3.3.5,5.7,1.5,7.1,2.3.3.2.6.2.9.2s.5,0,.7-.2c1-1.6,1.9-3.2,2.7-4.9,0-.4-.4-.9-.9-1.1-1.4-.8-3.6-2.4-5.7-4.9-1.5-1.8-2-4.2-1.4-6.4h0c.6-2.2,2.2-4.1,4.3-4.9,3.1-1.2,5.7-1.5,7.3-1.6.6,0,1.2-.3,1.4-.8v-5.6c-.3-.3-.8-.6-1.3-.6-1.6,0-4.3-.3-7.4-1.4-2.2-.8-3.8-2.6-4.5-4.8h0c-.6-2.2-.2-4.6,1.3-6.4,2-2.6,4.2-4.2,5.5-5,.5-.3.8-.9.8-1.4-.9-1.7-1.8-3.3-2.8-4.8h-.5c-.3,0-.6,0-.9.2-1.4.8-3.8,1.9-7.1,2.5-.4,0-.8.1-1.2.1-1.9,0-3.7-.7-5-2.1h0c-1.7-1.6-2.4-3.9-2.1-6.2.5-3.3,1.5-5.7,2.3-7.1.3-.5.3-1.1,0-1.6-1.6-1-3.2-1.9-4.9-2.7-.4,0-.9.4-1.1.9-.8,1.4-2.4,3.6-4.9,5.7-1.3,1.1-2.9,1.7-4.6,1.7s-1.2,0-1.8-.2h0c-2.2-.6-4.1-2.2-4.9-4.3-1.2-3.1-1.5-5.7-1.6-7.3,0-.6-.3-1.2-.8-1.4h-2.2.2Z"/>
  <g>
    <path class="st0" d="M163.9,6h-9.1c-.6,0-1.2.3-1.7.7l-.3.3v.2l5.9,15.8c.5,1.2-.1,2.6-1.3,3.1s-2.5-.1-2.9-1.4l-5.7-15.2c-.2-.5-.8-.7-1.2-.5-12.1,7-20.4,21.4-20.4,38.1s0,0,0,0c0,0,0,0,0,0h.6c-2.4,0-4.3,2-4.3,4.4s1.9,4.4,4.3,4.4h36.1V6h0Z"/>
    <path class="st0" d="M163.6,101.1c-.9,0-1.8-.2-2.8-.3-1.8-.2-3.3-.9-4.6-2.1s-2.5-2.4-3.7-3.6c-3.3-3.2-6.6-6.4-9.9-9.6-.5-.5-.9-1.2-1.1-1.9,0-.4-.1-.8-.2-1.2-.4-3.4-.8-6.9-1.2-10.3,0-.2-.1-.3-.3-.3h-1.7c-.7,0-1.3-.2-1.7-.8-1.2-2-2.5-3.9-3.7-5.9-.5-.8-.6-1.6-.3-2.5.2-.7.4-1.3.6-2,.2-.7.4-1.5.6-2.2h-4.9c-.3.9-.5,1.7-.8,2.6-.7,2.4-.4,4.7.9,6.9,1.1,1.8,2.2,3.5,3.3,5.3.8,1.3,1.9,2.3,3.3,2.8.1,0,.2.2.2.3.1,1.1.2,2.1.4,3.2.2,1.5.3,3,.5,4.5.3,2.1,1.4,3.8,2.9,5.3,4.4,4.2,8.7,8.4,13.1,12.6,1.6,1.6,3.5,2.7,5.7,3.2,1.3.3,2.7.4,4.1.6.5,0,1,0,1.5,0v-4.7h-.4.2Z"/>
  </g>
</svg>