<svg width="410" height="94" xmlns="http://www.w3.org/2000/svg" xmlns:xlink="http://www.w3.org/1999/xlink" xml:space="preserve" overflow="hidden"><g transform="translate(-406 -300)"><path d="M119.182 17.1644C119.182 20.834 116.207 23.8088 112.538 23.8088 108.868 23.8088 105.894 20.834 105.894 17.1644 105.894 13.4949 108.868 10.5201 112.538 10.5201 116.207 10.5201 119.182 13.4949 119.182 17.1644Z" fill="#FFFFFF" transform="matrix(1.00541 0 0 1 406 300.075)"/><path d="M75.9942 14.1191 54.8155 14.1191 54.8155 66.5815 75.9942 66.5815C90.5286 66.5815 101.741 55.0924 101.741 40.2811 101.741 25.4698 90.6671 13.9807 75.9942 13.9807ZM90.1134 40.2811C90.1134 49.2786 84.438 54.9539 76.1326 54.9539L66.9967 54.9539 66.9967 25.6083 75.9942 25.6083C84.2996 25.6083 90.1134 31.2836 90.1134 40.2811L90.1134 40.2811Z" fill="#FFFFFF" transform="matrix(1.00541 0 0 1 406 300.075)"/><path d="M106.586 27.4078 118.352 27.4078 118.352 66.5815 106.586 66.5815Z" fill="#FFFFFF" transform="matrix(1.00541 0 0 1 406 300.075)"/><path d="M154.342 31.6989C151.712 28.5151 147.974 26.5772 142.853 26.5772 131.64 26.5772 123.473 35.7131 123.473 46.3717 123.473 57.0303 131.64 66.1662 142.853 66.1662 154.065 66.1662 151.712 64.2283 154.342 61.0445L154.342 64.6435C154.342 70.1805 150.881 72.5336 145.483 73.0873 141.33 73.5026 135.931 72.3952 131.363 68.2425L124.996 76.2711C130.256 81.6696 136.762 83.3306 145.067 83.3306 153.373 83.3306 165.831 77.7937 165.831 64.6435L165.831 27.5462 154.342 27.5462 154.342 31.5604ZM144.652 55.5076C139.115 55.5076 135.101 51.9086 135.101 46.3717 135.101 40.8348 138.977 37.2358 144.652 37.2358 150.327 37.2358 154.203 40.9732 154.203 46.3717 154.203 51.7702 150.327 55.5076 144.652 55.5076Z" fill="#FFFFFF" transform="matrix(1.00541 0 0 1 406 300.075)"/><path d="M177.735 10.6586C173.998 10.6586 171.091 13.5655 171.091 17.3029 171.091 21.0403 174.136 23.9472 177.735 23.9472 181.334 23.9472 184.379 21.0403 184.379 17.3029 184.379 13.5655 181.334 10.6586 177.735 10.6586Z" fill="#FFFFFF" transform="matrix(1.00541 0 0 1 406 300.075)"/><path d="M171.921 27.4078 183.687 27.4078 183.687 66.5815 171.921 66.5815Z" fill="#FFFFFF" transform="matrix(1.00541 0 0 1 406 300.075)"/><path d="M243.624 40.9732C243.624 25.7467 231.305 13.9807 216.078 13.9807 200.852 13.9807 188.532 25.7467 188.532 40.9732 188.532 56.1997 200.852 67.9657 216.078 67.9657 231.305 67.9657 224.799 66.8583 228.536 65.1972L236.842 73.641 245.009 66.0278 237.534 58.1377C241.271 53.4313 243.624 47.6175 243.624 41.1116ZM215.94 56.615C213.725 56.615 211.51 56.1997 209.572 55.3692 207.773 54.5387 206.112 53.5697 204.866 52.1855 201.959 49.417 200.021 45.4027 200.021 41.1116 200.021 32.5294 207.081 25.6083 215.801 25.6083 224.522 25.6083 231.582 32.5294 231.582 41.1116 231.72 49.6939 224.522 56.615 215.801 56.615Z" fill="#FFFFFF" transform="matrix(1.00541 0 0 1 406 300.075)"/><path d="M274.631 48.7249C274.631 54.2618 271.724 56.7534 267.295 56.7534 262.865 56.7534 260.374 54.5387 260.374 49.6939L260.374 27.4078 248.608 27.4078 248.608 51.4934C248.608 62.0135 255.39 67.6888 263.419 67.6888 271.447 67.6888 272.555 65.7509 274.631 62.9825L274.631 66.5815 286.397 66.5815 286.397 27.4078 274.631 27.4078 274.631 48.7249Z" fill="#FFFFFF" transform="matrix(1.00541 0 0 1 406 300.075)"/><path d="M298.578 10.6586C294.841 10.6586 291.934 13.5655 291.934 17.3029 291.934 21.0403 294.979 23.9472 298.578 23.9472 302.177 23.9472 305.223 21.0403 305.223 17.3029 305.223 13.5655 302.177 10.6586 298.578 10.6586Z" fill="#FFFFFF" transform="matrix(1.00541 0 0 1 406 300.075)"/><path d="M292.626 27.4078 304.392 27.4078 304.392 66.5815 292.626 66.5815Z" fill="#FFFFFF" transform="matrix(1.00541 0 0 1 406 300.075)"/><path d="M334.015 26.4388C328.616 26.4388 324.879 28.2383 322.249 31.1452L322.249 27.5462 310.483 27.5462 310.483 82.3617 322.249 82.3617 322.249 62.9825C324.879 65.8893 328.755 67.6888 334.015 67.6888 344.396 67.6888 352.84 58.8298 352.84 47.0638 352.84 35.2979 344.258 26.4388 334.015 26.3004ZM331.938 56.8918C326.54 56.8918 322.526 53.2929 322.526 47.3407 322.526 41.3885 326.401 37.7895 331.938 37.7895 337.475 37.7895 341.351 41.3885 341.351 47.3407 341.351 53.2929 337.475 56.8918 331.938 56.8918Z" fill="#FFFFFF" transform="matrix(1.00541 0 0 1 406 300.075)"/></g></svg>